# xmcd
#
# Track frame offsets: 
#        150
#        23146
#        37589
#        54311
#        68861
#        90352
#        106381
#        122923
#        137779
#        151085
#        166513
#        182334
#        198597
#        213742
#        227530
#
# Disc length: 3213 seconds
#
# Revision: 0
# Processed by: cddbd v1.5.2PL0 Copyright (c) Steve Scherf et al.
# Submitted via: ExactAudioCopyFreeDBPlugin 1.0
#
DISCID=b60c8b0f
DTITLE=Various Artist - シャンソン決定盤 Les chansons inoubliables
DYEAR=2011
DGENRE=Chanson
TTITLE0=Patrick Nugier - Le temps des cerises
TTITLE1=Magali Bonfils - Parlez-moi d'amour
TTITLE2=Vanessa Hidden - A Paris dans chaque faubourg
TTITLE3=Liza Michael - J'ai deux amours
TTITLE4=Laurent Ban - Les feuilles mortes
TTITLE5=Laurent Ban - La mer
TTITLE6=Liza Michael - La mer
TTITLE7=Vanessa Hidden - Mon amant de Saint-Jean
TTITLE8=Anandha Seethanen - Mon cœur est un violon
TTITLE9=Magali Bonfils - La vie en rose
TTITLE10=Laurent Ban - C'est si bon
TTITLE11=Anne-Lize - Hymne à l'amour
TTITLE12=Vanessa Hidden - Domino
TTITLE13=Anne-Lize - Padam padam
TTITLE14=Pascal Bolantin - L'âme de poètes
EXTD=
EXTT0=
EXTT1=
EXTT2=
EXTT3=
EXTT4=
EXTT5=
EXTT6=
EXTT7=
EXTT8=
EXTT9=
EXTT10=
EXTT11=
EXTT12=
EXTT13=
EXTT14=
PLAYORDER=
